<svg xmlns="http://www.w3.org/2000/svg" width="560" height="430" viewBox="0 0 560 430"><rect width="560" height="430" rx="8" fill="#202124"/><text x="22" y="32" fill="#fff" font-family="sans-serif" font-size="17">Edit Output Plot</text><g font-family="sans-serif" font-size="13" fill="#ddd"><text x="24" y="76">Name</text><text x="24" y="116">Simulation</text><text x="24" y="156">Plot type</text><text x="24" y="196">S-parameter</text><text x="24" y="236">Far-field plane</text><text x="24" y="276">Polar view</text><text x="24" y="316">Frequency</text></g><g fill="#30333a" stroke="#626775"><rect x="130" y="56" width="390" height="28"/><rect x="130" y="96" width="390" height="28"/><rect x="130" y="136" width="390" height="28"/><rect x="130" y="176" width="390" height="28"/><rect x="130" y="216" width="390" height="28"/><rect x="130" y="256" width="390" height="28"/><rect x="130" y="296" width="390" height="28"/></g><g fill="#b8c5d9" font-family="sans-serif" font-size="12"><text x="142" y="75">Output_1</text><text x="142" y="115">Simulation_1</text><text x="142" y="155">plot_ff_3d</text><text x="142" y="195">S11</text><text x="142" y="235">XZ</text><text x="142" y="275">3D polar</text><text x="142" y="315">1.050000 GHz</text></g><rect x="390" y="360" width="90" height="32" rx="4" fill="#4d80b7"/><text x="418" y="381" fill="#fff" font-family="sans-serif" font-size="13">OK</text><rect x="280" y="360" width="90" height="32" rx="4" fill="#44474e"/><text x="299" y="381" fill="#fff" font-family="sans-serif" font-size="13">Cancel</text></svg>